<?xml version="1.0" standalone="no"?><svg xmlns="http://www.w3.org/2000/svg" viewBox="0 0 1440 320"><path fill="#5C8374"  fill-opacity="1" d="M0,160L10,138.7C20,117,40,75,60,80C80,85,100,139,120,181.3C140,224,160,256,180,234.7C200,213,220,139,240,138.7C260,139,280,213,300,224C320,235,340,181,360,186.7C380,192,400,256,420,272C440,288,460,256,480,229.3C500,203,520,181,540,192C560,203,580,245,600,229.3C620,213,640,139,660,128C680,117,700,171,720,181.3C740,192,760,160,780,144C800,128,820,128,840,128C860,128,880,128,900,138.7C920,149,940,171,960,186.7C980,203,1000,213,1020,192C1040,171,1060,117,1080,122.7C1100,128,1120,192,1140,218.7C1160,245,1180,235,1200,213.3C1220,192,1240,160,1260,154.7C1280,149,1300,171,1320,197.3C1340,224,1360,256,1380,250.7C1400,245,1420,203,1430,181.3L1440,160L1440,320L1430,320C1420,320,1400,320,1380,320C1360,320,1340,320,1320,320C1300,320,1280,320,1260,320C1240,320,1220,320,1200,320C1180,320,1160,320,1140,320C1120,320,1100,320,1080,320C1060,320,1040,320,1020,320C1000,320,980,320,960,320C940,320,920,320,900,320C880,320,860,320,840,320C820,320,800,320,780,320C760,320,740,320,720,320C700,320,680,320,660,320C640,320,620,320,600,320C580,320,560,320,540,320C520,320,500,320,480,320C460,320,440,320,420,320C400,320,380,320,360,320C340,320,320,320,300,320C280,320,260,320,240,320C220,320,200,320,180,320C160,320,140,320,120,320C100,320,80,320,60,320C40,320,20,320,10,320L0,320Z"></path></svg>